<svg xmlns="http://www.w3.org/2000/svg" viewBox="0 0 295.65 254.9"><defs><style>.cls-1{fill:#fcd9d2;}.cls-2{fill:#fff;}</style></defs><g id="Layer_2" data-name="Layer 2"><g id="ac21ac2c-fe4f-4034-a272-ff155c287926"><path class="cls-1" d="M6.19,0A6.19,6.19,0,0,0,0,6.19V248.71a6.19,6.19,0,0,0,6.19,6.19H289.46a6.21,6.21,0,0,0,6.19-6.19V6.19A6.2,6.2,0,0,0,289.46,0Z"/><path class="cls-2" d="M44.2,146a2.72,2.72,0,0,0,0,5.33H251.45a2.72,2.72,0,0,0,0-5.33Z"/><path class="cls-2" d="M44.2,177.65a2.72,2.72,0,0,0,0,5.33H251.45a2.72,2.72,0,0,0,0-5.33Z"/><path class="cls-2" d="M44.2,209.32a2.72,2.72,0,0,0-2.12,3.21,2.69,2.69,0,0,0,2.12,2.12H251.45a2.71,2.71,0,0,0,2.12-3.2,2.74,2.74,0,0,0-2.12-2.13Z"/><path class="cls-2" d="M44.2,40.24a2.73,2.73,0,0,0,0,5.34H251.45a2.73,2.73,0,0,0,0-5.34Z"/><path class="cls-2" d="M44.2,71.92a2.72,2.72,0,0,0,0,5.33H251.45a2.72,2.72,0,0,0,0-5.33Z"/><path class="cls-2" d="M44.2,103.59a2.72,2.72,0,0,0,0,5.33H251.45a2.72,2.72,0,0,0,0-5.33Z"/></g></g></svg>