<svg xmlns="http://www.w3.org/2000/svg" viewBox="0 0 383.95 186.29"><defs><style>.cls-1{fill:#fbd8d1;}</style></defs><g id="Layer_2" data-name="Layer 2"><g id="ac21ac2c-fe4f-4034-a272-ff155c287926"><path class="cls-1" d="M192,186.28q-86.93,0-173.87-.06c-6.85,0-12.14-3.44-15.65-9.41A17.06,17.06,0,0,1,0,167.44a18.54,18.54,0,0,1,4.72-12c3.57-4,7-8.13,10.56-12.19,2.44-2.79,4.92-5.55,7.35-8.34,3-3.42,5.93-6.87,8.91-10.3,2.41-2.76,4.85-5.5,7.26-8.26,3.11-3.57,6.21-7.16,9.32-10.73,2.41-2.76,4.86-5.5,7.26-8.26,3-3.48,6-7,9.07-10.47,1.83-2.11,3.7-4.18,5.53-6.29q4.68-5.35,9.33-10.72c2.39-2.74,4.79-5.45,7.18-8.18,3-3.48,6.12-6.92,9.06-10.48,3.25-3.93,7-7,12.19-7.85a18,18,0,0,1,15.38,4.08q6.68,5.79,13.3,11.64c3,2.66,6,5.39,9,8,2.71,2.34,5.22,4.92,8.55,6.46a18.49,18.49,0,0,0,19.41-2.77c4.22-3.57,8.5-7.09,12.73-10.65,3.27-2.74,6.5-5.51,9.76-8.26s6.43-5.34,9.63-8,6.45-5.45,9.68-8.16c3.81-3.21,7.63-6.39,11.44-9.6,2.75-2.3,5.47-4.63,8.22-6.94l11.54-9.66c2.47-2.07,4.88-4.22,7.45-6.17A16.47,16.47,0,0,1,263.52,0a17.7,17.7,0,0,1,12.11,3.6,44.23,44.23,0,0,1,4.46,4.31c2.07,2.2,4.05,4.5,6.08,6.74q6.76,7.5,13.56,15c1.79,2,3.62,3.93,5.41,5.91q5.58,6.15,11.15,12.33c1.76,2,3.55,3.87,5.32,5.82L335.51,69c1.72,1.89,3.45,3.77,5.16,5.66,4.61,5.08,9.2,10.17,13.82,15.24,2.82,3.09,5.68,6.15,8.5,9.25,3.56,3.92,7.06,7.91,10.66,11.79a28,28,0,0,1,4.86,6.48,20.82,20.82,0,0,1,1.86,7.23c.36,3.48.66,7,.95,10.44.2,2.42.3,4.84.51,7.26.26,2.88.61,5.75.9,8.63.2,1.94.39,3.88.51,5.82.27,4,.62,8.09.7,12.15a15.85,15.85,0,0,1-3.65,10,18.2,18.2,0,0,1-11.15,6.86,15.7,15.7,0,0,1-3.19.38q-87,0-174,0Z"/></g></g></svg>