<svg xmlns="http://www.w3.org/2000/svg" viewBox="0 0 268.29 212.03"><defs><style>.cls-1{fill:#fcd9d2;}</style></defs><g id="Layer_2" data-name="Layer 2"><g id="ac21ac2c-fe4f-4034-a272-ff155c287926"><path class="cls-1" d="M268.27,74.53A32.27,32.27,0,0,0,251.54,47c-18.22-9.94-96.27-28.73-96.27-28.73S77.19-.54,56.45,0A32.29,32.29,0,0,0,29,16.9C19.1,35.36,9.26,76.13,9.26,76.13S-.59,117,0,137.87A31.77,31.77,0,0,0,16.83,165C35,175,113.09,193.77,113.09,193.77s78.09,18.8,98.82,18.25a31.79,31.79,0,0,0,27.35-16.55C249.2,177,259,136.24,259,136.24S268.8,95.39,268.27,74.53ZM99.62,137.2,117.49,63l56.33,52.82L99.65,137.32Z"/></g></g></svg>